<?xml version="1.0" encoding="utf-8" standalone="no"?>
<!DOCTYPE svg PUBLIC "-//W3C//DTD SVG 1.1//EN"
  "http://www.w3.org/Graphics/SVG/1.1/DTD/svg11.dtd">
<!-- Created with matplotlib (https://matplotlib.org/) -->
<svg height="262.19625pt" version="1.1" viewBox="0 0 385.78125 262.19625" width="385.78125pt" xmlns="http://www.w3.org/2000/svg" xmlns:xlink="http://www.w3.org/1999/xlink">
 <defs>
  <style type="text/css">
*{stroke-linecap:butt;stroke-linejoin:round;}
  </style>
 </defs>
 <g id="figure_1">
  <g id="patch_1">
   <path d="M 0 262.19625 
L 385.78125 262.19625 
L 385.78125 0 
L 0 0 
z
" style="fill:#ffffff;"/>
  </g>
  <g id="axes_1">
   <g id="patch_2">
    <path d="M 43.78125 224.64 
L 378.58125 224.64 
L 378.58125 7.2 
L 43.78125 7.2 
z
" style="fill:#ffffff;"/>
   </g>
   <g id="matplotlib.axis_1">
    <g id="xtick_1">
     <g id="line2d_1">
      <defs>
       <path d="M 0 0 
L 0 3.5 
" id="m4a6722ec90" style="stroke:#000000;stroke-width:0.8;"/>
      </defs>
      <g>
       <use style="stroke:#000000;stroke-width:0.8;" x="87.18125" xlink:href="#m4a6722ec90" y="224.64"/>
      </g>
     </g>
     <g id="text_1">
      <!-- −2 -->
      <defs>
       <path d="M 10.59375 35.5 
L 73.1875 35.5 
L 73.1875 27.203125 
L 10.59375 27.203125 
z
" id="DejaVuSans-8722"/>
       <path d="M 19.1875 8.296875 
L 53.609375 8.296875 
L 53.609375 0 
L 7.328125 0 
L 7.328125 8.296875 
Q 12.9375 14.109375 22.625 23.890625 
Q 32.328125 33.6875 34.8125 36.53125 
Q 39.546875 41.84375 41.421875 45.53125 
Q 43.3125 49.21875 43.3125 52.78125 
Q 43.3125 58.59375 39.234375 62.25 
Q 35.15625 65.921875 28.609375 65.921875 
Q 23.96875 65.921875 18.8125 64.3125 
Q 13.671875 62.703125 7.8125 59.421875 
L 7.8125 69.390625 
Q 13.765625 71.78125 18.9375 73 
Q 24.125 74.21875 28.421875 74.21875 
Q 39.75 74.21875 46.484375 68.546875 
Q 53.21875 62.890625 53.21875 53.421875 
Q 53.21875 48.921875 51.53125 44.890625 
Q 49.859375 40.875 45.40625 35.40625 
Q 44.1875 33.984375 37.640625 27.21875 
Q 31.109375 20.453125 19.1875 8.296875 
z
" id="DejaVuSans-50"/>
      </defs>
      <g transform="translate(79.810156 239.238438)scale(0.1 -0.1)">
       <use xlink:href="#DejaVuSans-8722"/>
       <use x="83.789062" xlink:href="#DejaVuSans-50"/>
      </g>
     </g>
    </g>
    <g id="xtick_2">
     <g id="line2d_2">
      <g>
       <use style="stroke:#000000;stroke-width:0.8;" x="149.18125" xlink:href="#m4a6722ec90" y="224.64"/>
      </g>
     </g>
     <g id="text_2">
      <!-- −1 -->
      <defs>
       <path d="M 12.40625 8.296875 
L 28.515625 8.296875 
L 28.515625 63.921875 
L 10.984375 60.40625 
L 10.984375 69.390625 
L 28.421875 72.90625 
L 38.28125 72.90625 
L 38.28125 8.296875 
L 54.390625 8.296875 
L 54.390625 0 
L 12.40625 0 
z
" id="DejaVuSans-49"/>
      </defs>
      <g transform="translate(141.810156 239.238438)scale(0.1 -0.1)">
       <use xlink:href="#DejaVuSans-8722"/>
       <use x="83.789062" xlink:href="#DejaVuSans-49"/>
      </g>
     </g>
    </g>
    <g id="xtick_3">
     <g id="line2d_3">
      <g>
       <use style="stroke:#000000;stroke-width:0.8;" x="211.18125" xlink:href="#m4a6722ec90" y="224.64"/>
      </g>
     </g>
     <g id="text_3">
      <!-- 0 -->
      <defs>
       <path d="M 31.78125 66.40625 
Q 24.171875 66.40625 20.328125 58.90625 
Q 16.5 51.421875 16.5 36.375 
Q 16.5 21.390625 20.328125 13.890625 
Q 24.171875 6.390625 31.78125 6.390625 
Q 39.453125 6.390625 43.28125 13.890625 
Q 47.125 21.390625 47.125 36.375 
Q 47.125 51.421875 43.28125 58.90625 
Q 39.453125 66.40625 31.78125 66.40625 
z
M 31.78125 74.21875 
Q 44.046875 74.21875 50.515625 64.515625 
Q 56.984375 54.828125 56.984375 36.375 
Q 56.984375 17.96875 50.515625 8.265625 
Q 44.046875 -1.421875 31.78125 -1.421875 
Q 19.53125 -1.421875 13.0625 8.265625 
Q 6.59375 17.96875 6.59375 36.375 
Q 6.59375 54.828125 13.0625 64.515625 
Q 19.53125 74.21875 31.78125 74.21875 
z
" id="DejaVuSans-48"/>
      </defs>
      <g transform="translate(208 239.238438)scale(0.1 -0.1)">
       <use xlink:href="#DejaVuSans-48"/>
      </g>
     </g>
    </g>
    <g id="xtick_4">
     <g id="line2d_4">
      <g>
       <use style="stroke:#000000;stroke-width:0.8;" x="273.18125" xlink:href="#m4a6722ec90" y="224.64"/>
      </g>
     </g>
     <g id="text_4">
      <!-- 1 -->
      <g transform="translate(270 239.238438)scale(0.1 -0.1)">
       <use xlink:href="#DejaVuSans-49"/>
      </g>
     </g>
    </g>
    <g id="xtick_5">
     <g id="line2d_5">
      <g>
       <use style="stroke:#000000;stroke-width:0.8;" x="335.18125" xlink:href="#m4a6722ec90" y="224.64"/>
      </g>
     </g>
     <g id="text_5">
      <!-- 2 -->
      <g transform="translate(332 239.238438)scale(0.1 -0.1)">
       <use xlink:href="#DejaVuSans-50"/>
      </g>
     </g>
    </g>
    <g id="text_6">
     <!-- y -->
     <defs>
      <path d="M 32.171875 -5.078125 
Q 28.375 -14.84375 24.75 -17.8125 
Q 21.140625 -20.796875 15.09375 -20.796875 
L 7.90625 -20.796875 
L 7.90625 -13.28125 
L 13.1875 -13.28125 
Q 16.890625 -13.28125 18.9375 -11.515625 
Q 21 -9.765625 23.484375 -3.21875 
L 25.09375 0.875 
L 2.984375 54.6875 
L 12.5 54.6875 
L 29.59375 11.921875 
L 46.6875 54.6875 
L 56.203125 54.6875 
z
" id="DejaVuSans-121"/>
     </defs>
     <g transform="translate(208.221875 252.916563)scale(0.1 -0.1)">
      <use xlink:href="#DejaVuSans-121"/>
     </g>
    </g>
   </g>
   <g id="matplotlib.axis_2">
    <g id="ytick_1">
     <g id="line2d_6">
      <defs>
       <path d="M 0 0 
L -3.5 0 
" id="ma158bf2007" style="stroke:#000000;stroke-width:0.8;"/>
      </defs>
      <g>
       <use style="stroke:#000000;stroke-width:0.8;" x="43.78125" xlink:href="#ma158bf2007" y="214.756364"/>
      </g>
     </g>
     <g id="text_7">
      <!-- 0.0 -->
      <defs>
       <path d="M 10.6875 12.40625 
L 21 12.40625 
L 21 0 
L 10.6875 0 
z
" id="DejaVuSans-46"/>
      </defs>
      <g transform="translate(20.878125 218.555582)scale(0.1 -0.1)">
       <use xlink:href="#DejaVuSans-48"/>
       <use x="63.623047" xlink:href="#DejaVuSans-46"/>
       <use x="95.410156" xlink:href="#DejaVuSans-48"/>
      </g>
     </g>
    </g>
    <g id="ytick_2">
     <g id="line2d_7">
      <g>
       <use style="stroke:#000000;stroke-width:0.8;" x="43.78125" xlink:href="#ma158bf2007" y="170.569156"/>
      </g>
     </g>
     <g id="text_8">
      <!-- 0.5 -->
      <defs>
       <path d="M 10.796875 72.90625 
L 49.515625 72.90625 
L 49.515625 64.59375 
L 19.828125 64.59375 
L 19.828125 46.734375 
Q 21.96875 47.46875 24.109375 47.828125 
Q 26.265625 48.1875 28.421875 48.1875 
Q 40.625 48.1875 47.75 41.5 
Q 54.890625 34.8125 54.890625 23.390625 
Q 54.890625 11.625 47.5625 5.09375 
Q 40.234375 -1.421875 26.90625 -1.421875 
Q 22.3125 -1.421875 17.546875 -0.640625 
Q 12.796875 0.140625 7.71875 1.703125 
L 7.71875 11.625 
Q 12.109375 9.234375 16.796875 8.0625 
Q 21.484375 6.890625 26.703125 6.890625 
Q 35.15625 6.890625 40.078125 11.328125 
Q 45.015625 15.765625 45.015625 23.390625 
Q 45.015625 31 40.078125 35.4375 
Q 35.15625 39.890625 26.703125 39.890625 
Q 22.75 39.890625 18.8125 39.015625 
Q 14.890625 38.140625 10.796875 36.28125 
z
" id="DejaVuSans-53"/>
      </defs>
      <g transform="translate(20.878125 174.368375)scale(0.1 -0.1)">
       <use xlink:href="#DejaVuSans-48"/>
       <use x="63.623047" xlink:href="#DejaVuSans-46"/>
       <use x="95.410156" xlink:href="#DejaVuSans-53"/>
      </g>
     </g>
    </g>
    <g id="ytick_3">
     <g id="line2d_8">
      <g>
       <use style="stroke:#000000;stroke-width:0.8;" x="43.78125" xlink:href="#ma158bf2007" y="126.381949"/>
      </g>
     </g>
     <g id="text_9">
      <!-- 1.0 -->
      <g transform="translate(20.878125 130.181167)scale(0.1 -0.1)">
       <use xlink:href="#DejaVuSans-49"/>
       <use x="63.623047" xlink:href="#DejaVuSans-46"/>
       <use x="95.410156" xlink:href="#DejaVuSans-48"/>
      </g>
     </g>
    </g>
    <g id="ytick_4">
     <g id="line2d_9">
      <g>
       <use style="stroke:#000000;stroke-width:0.8;" x="43.78125" xlink:href="#ma158bf2007" y="82.194741"/>
      </g>
     </g>
     <g id="text_10">
      <!-- 1.5 -->
      <g transform="translate(20.878125 85.99396)scale(0.1 -0.1)">
       <use xlink:href="#DejaVuSans-49"/>
       <use x="63.623047" xlink:href="#DejaVuSans-46"/>
       <use x="95.410156" xlink:href="#DejaVuSans-53"/>
      </g>
     </g>
    </g>
    <g id="ytick_5">
     <g id="line2d_10">
      <g>
       <use style="stroke:#000000;stroke-width:0.8;" x="43.78125" xlink:href="#ma158bf2007" y="38.007533"/>
      </g>
     </g>
     <g id="text_11">
      <!-- 2.0 -->
      <g transform="translate(20.878125 41.806752)scale(0.1 -0.1)">
       <use xlink:href="#DejaVuSans-50"/>
       <use x="63.623047" xlink:href="#DejaVuSans-46"/>
       <use x="95.410156" xlink:href="#DejaVuSans-48"/>
      </g>
     </g>
    </g>
    <g id="text_12">
     <!-- f(y) -->
     <defs>
      <path d="M 37.109375 75.984375 
L 37.109375 68.5 
L 28.515625 68.5 
Q 23.6875 68.5 21.796875 66.546875 
Q 19.921875 64.59375 19.921875 59.515625 
L 19.921875 54.6875 
L 34.71875 54.6875 
L 34.71875 47.703125 
L 19.921875 47.703125 
L 19.921875 0 
L 10.890625 0 
L 10.890625 47.703125 
L 2.296875 47.703125 
L 2.296875 54.6875 
L 10.890625 54.6875 
L 10.890625 58.5 
Q 10.890625 67.625 15.140625 71.796875 
Q 19.390625 75.984375 28.609375 75.984375 
z
" id="DejaVuSans-102"/>
      <path d="M 31 75.875 
Q 24.46875 64.65625 21.28125 53.65625 
Q 18.109375 42.671875 18.109375 31.390625 
Q 18.109375 20.125 21.3125 9.0625 
Q 24.515625 -2 31 -13.1875 
L 23.1875 -13.1875 
Q 15.875 -1.703125 12.234375 9.375 
Q 8.59375 20.453125 8.59375 31.390625 
Q 8.59375 42.28125 12.203125 53.3125 
Q 15.828125 64.359375 23.1875 75.875 
z
" id="DejaVuSans-40"/>
      <path d="M 8.015625 75.875 
L 15.828125 75.875 
Q 23.140625 64.359375 26.78125 53.3125 
Q 30.421875 42.28125 30.421875 31.390625 
Q 30.421875 20.453125 26.78125 9.375 
Q 23.140625 -1.703125 15.828125 -13.1875 
L 8.015625 -13.1875 
Q 14.5 -2 17.703125 9.0625 
Q 20.90625 20.125 20.90625 31.390625 
Q 20.90625 42.671875 17.703125 53.65625 
Q 14.5 64.65625 8.015625 75.875 
z
" id="DejaVuSans-41"/>
     </defs>
     <g transform="translate(14.798438 124.541094)rotate(-90)scale(0.1 -0.1)">
      <use xlink:href="#DejaVuSans-102"/>
      <use x="35.205078" xlink:href="#DejaVuSans-40"/>
      <use x="74.21875" xlink:href="#DejaVuSans-121"/>
      <use x="133.398438" xlink:href="#DejaVuSans-41"/>
     </g>
    </g>
   </g>
   <g id="line2d_11">
    <path clip-path="url(#pa1200ca296)" d="M 43.781051 214.756364 
L 165.008552 214.646616 
L 166.701309 214.401116 
L 167.836015 214.01817 
L 168.728898 213.484645 
L 169.510171 212.755725 
L 170.235639 211.766827 
L 170.942505 210.412351 
L 171.649371 208.553352 
L 172.374838 205.976093 
L 173.118908 202.453863 
L 173.881579 197.717938 
L 174.681453 191.298423 
L 175.537133 182.538336 
L 176.46722 170.568793 
L 177.490315 154.351409 
L 178.699428 131.374804 
L 180.466593 92.910911 
L 182.456978 50.825636 
L 183.461472 34.088031 
L 184.224143 24.77022 
L 184.819398 19.933473 
L 185.26584 17.830424 
L 185.600671 17.142696 
L 185.823892 17.086649 
L 186.381944 17.23237 
L 186.9772 17.628615 
L 187.62826 18.344829 
L 188.353728 19.487082 
L 189.190806 21.247636 
L 190.139494 23.800174 
L 191.199793 27.324844 
L 192.408906 32.158452 
L 193.785434 38.628606 
L 195.366582 47.17819 
L 197.263958 58.734499 
L 199.682184 74.935701 
L 204.834864 111.486166 
L 208.052964 133.291019 
L 210.489791 148.331628 
L 212.628991 160.186879 
L 214.582173 169.7972 
L 216.405143 177.690292 
L 218.135104 184.230816 
L 219.80926 189.714494 
L 221.427611 194.272135 
L 223.008758 198.073549 
L 224.552702 201.220416 
L 226.078044 203.837325 
L 227.603387 206.020925 
L 229.128729 207.825465 
L 230.691275 209.334915 
L 232.309625 210.590991 
L 234.020985 211.635957 
L 235.862557 212.496051 
L 237.890146 213.193509 
L 240.196761 213.747363 
L 242.949817 214.172486 
L 246.446943 214.476042 
L 251.395005 214.664215 
L 260.398244 214.746629 
L 307.218808 214.756364 
L 378.593662 214.756364 
L 378.593662 214.756364 
" style="fill:none;stroke:#1f77b4;stroke-dasharray:2.96,1.28;stroke-dashoffset:0;stroke-width:0.8;"/>
   </g>
   <g id="line2d_12">
    <path clip-path="url(#pa1200ca296)" d="M 43.781051 214.756364 
L 139.021929 214.645423 
L 148.639026 214.397651 
L 155.056624 214.019582 
L 160.06049 213.509571 
L 164.264482 212.862347 
L 167.929024 212.077414 
L 171.240133 211.143524 
L 174.290817 210.053856 
L 177.155484 208.795621 
L 179.889939 207.35182 
L 182.531385 205.705363 
L 185.117026 203.830895 
L 187.684065 201.692851 
L 190.251105 199.262595 
L 192.855347 196.486796 
L 195.515395 193.32301 
L 198.287054 189.675744 
L 201.226128 185.43242 
L 204.425626 180.410706 
L 208.071566 174.258784 
L 212.889415 165.655708 
L 221.483416 150.26423 
L 224.813127 144.808322 
L 227.52898 140.769663 
L 229.910002 137.615863 
L 232.049201 135.143118 
L 234.002383 133.218349 
L 235.806751 131.746017 
L 237.480907 130.658142 
L 239.080657 129.879338 
L 240.605999 129.380883 
L 242.075536 129.130154 
L 243.470666 129.110574 
L 244.623973 129.321539 
L 245.795883 129.763821 
L 247.023597 130.46967 
L 248.325718 131.482557 
L 249.720848 132.858434 
L 251.227589 134.664569 
L 252.883143 137.005204 
L 254.743317 140.036544 
L 256.845313 143.903651 
L 259.337945 148.977179 
L 262.574647 156.10815 
L 273.363652 180.289279 
L 276.284125 186.062637 
L 278.888367 190.732928 
L 281.325195 194.656749 
L 283.650411 197.985691 
L 285.882619 200.802113 
L 288.077624 203.220876 
L 290.254027 205.294084 
L 292.449032 207.080713 
L 294.68124 208.612147 
L 296.987855 209.924471 
L 299.40608 211.042459 
L 301.973119 211.982811 
L 304.781981 212.771011 
L 307.907073 213.41249 
L 311.515809 213.920271 
L 315.887216 214.301723 
L 321.579347 214.56199 
L 330.136145 214.70831 
L 349.295931 214.755117 
L 378.593662 214.756362 
L 378.593662 214.756362 
" style="fill:none;stroke:#ff7f0e;stroke-dasharray:2.96,1.28;stroke-dashoffset:0;stroke-width:0.8;"/>
   </g>
   <g id="line2d_13">
    <path clip-path="url(#pa1200ca296)" d="M 43.781051 214.756364 
L 177.713536 214.645298 
L 183.833506 214.398513 
L 187.907286 214.021451 
L 191.069581 213.512766 
L 193.711027 212.868325 
L 196.017642 212.081553 
L 198.101036 211.139978 
L 200.035617 210.023869 
L 201.877188 208.703152 
L 203.644353 207.159822 
L 205.374314 205.349919 
L 207.085674 203.232651 
L 208.797034 200.756158 
L 210.526995 197.855418 
L 212.29416 194.45049 
L 214.117129 190.445564 
L 216.014506 185.729556 
L 218.023494 180.124808 
L 220.181295 173.426889 
L 222.580918 165.224419 
L 225.408382 154.724334 
L 229.742586 137.636449 
L 234.039587 120.986401 
L 236.476414 112.414356 
L 238.429596 106.31433 
L 240.103752 101.779064 
L 241.573289 98.410481 
L 242.87541 95.954382 
L 244.04732 94.198705 
L 245.089017 93.01702 
L 246.037705 92.260814 
L 246.911987 91.839233 
L 247.730463 91.686464 
L 248.455931 91.762938 
L 249.181398 92.06798 
L 249.962671 92.650843 
L 250.799749 93.56381 
L 251.729836 94.920061 
L 252.771533 96.851368 
L 253.943442 99.518347 
L 255.264165 103.105585 
L 256.770906 107.872569 
L 258.53807 114.241524 
L 260.714473 122.974165 
L 263.858166 136.618579 
L 269.513093 161.200978 
L 272.098735 171.367581 
L 274.312341 179.199504 
L 276.321328 185.519787 
L 278.200103 190.723117 
L 279.98587 195.037982 
L 281.715831 198.652472 
L 283.389987 201.651351 
L 285.045541 204.17133 
L 286.682494 206.267735 
L 288.338048 208.031323 
L 290.012204 209.494713 
L 291.742166 210.715628 
L 293.565136 211.731921 
L 295.536919 212.574658 
L 297.713322 213.259189 
L 300.205955 213.803514 
L 303.182232 214.216653 
L 306.976986 214.506549 
L 312.427294 214.680801 
L 322.90007 214.750714 
L 378.593662 214.756364 
L 378.593662 214.756364 
" style="fill:none;stroke:#2ca02c;stroke-dasharray:2.96,1.28;stroke-dashoffset:0;stroke-width:0.8;"/>
   </g>
   <g id="line2d_14">
    <path clip-path="url(#pa1200ca296)" d="M 43.781051 214.756364 
L 142.593462 214.645827 
L 146.239402 214.400465 
L 148.676229 214.022274 
L 150.555004 213.513281 
L 152.136152 212.860568 
L 153.549883 212.036551 
L 154.852005 211.015683 
L 156.079719 209.765017 
L 157.27023 208.227523 
L 158.442139 206.343081 
L 159.614049 204.029692 
L 160.80456 201.17641 
L 162.032274 197.6354 
L 163.297192 193.28336 
L 164.617915 187.912766 
L 166.013045 181.270327 
L 167.501184 173.064064 
L 169.138137 162.739501 
L 171.016912 149.399181 
L 173.490942 130.091398 
L 178.048367 94.319542 
L 179.703921 83.227566 
L 181.024645 75.78726 
L 182.140749 70.701211 
L 183.089437 67.356922 
L 183.889312 65.290545 
L 184.558974 64.11477 
L 185.135628 63.517359 
L 185.619273 63.316193 
L 186.177325 63.357827 
L 186.865589 63.62587 
L 187.591057 64.159787 
L 188.37233 65.020174 
L 189.246611 66.327669 
L 190.232503 68.226949 
L 191.330005 70.849871 
L 192.55772 74.382916 
L 193.95285 79.103862 
L 195.552599 85.336514 
L 197.449976 93.674881 
L 199.830998 105.216409 
L 203.681557 125.171418 
L 208.108769 147.786081 
L 210.768817 160.228039 
L 213.056831 169.898979 
L 215.121623 177.691952 
L 217.056203 184.148634 
L 218.879173 189.483579 
L 220.627736 193.937814 
L 222.339096 197.701476 
L 223.99465 200.820741 
L 225.631603 203.443431 
L 227.268555 205.652385 
L 228.905508 207.493723 
L 230.579664 209.04415 
L 232.291024 210.329499 
L 234.095392 211.407619 
L 236.029972 212.302778 
L 238.15057 213.035898 
L 240.550194 213.625186 
L 243.377657 214.082634 
L 246.893385 214.415267 
L 251.692632 214.63015 
L 259.691378 214.735991 
L 286.515078 214.756354 
L 378.593662 214.756364 
L 378.593662 214.756364 
" style="fill:none;stroke:#d62728;stroke-dasharray:2.96,1.28;stroke-dashoffset:0;stroke-width:0.8;"/>
   </g>
   <g id="line2d_15">
    <path clip-path="url(#pa1200ca296)" d="M 43.781051 214.756364 
L 170.272842 214.645889 
L 172.207423 214.399166 
L 173.490942 214.020603 
L 174.514038 213.488699 
L 175.388319 212.783276 
L 176.188194 211.851962 
L 176.969467 210.589646 
L 177.732138 208.923638 
L 178.513411 206.657673 
L 179.313285 203.615708 
L 180.131761 199.591651 
L 180.987441 194.225062 
L 181.898926 187.016576 
L 182.866216 177.508739 
L 183.926515 164.781415 
L 185.135628 147.431144 
L 186.679572 121.766553 
L 190.139494 63.091849 
L 191.16259 50.046674 
L 191.943863 42.652754 
L 192.576321 38.571917 
L 193.059967 36.693075 
L 193.432001 36.006738 
L 193.692426 35.915167 
L 194.343486 36.049805 
L 195.013149 36.422029 
L 195.738616 37.091047 
L 196.538491 38.145332 
L 197.431374 39.707301 
L 198.435868 41.936728 
L 199.551972 44.977028 
L 200.81689 49.099004 
L 202.249223 54.565473 
L 203.886176 61.735756 
L 205.802154 71.177153 
L 208.183176 84.098288 
L 211.810514 105.179526 
L 216.981797 135.049509 
L 219.734853 149.612927 
L 222.078672 160.856992 
L 224.199269 169.980768 
L 226.189655 177.587494 
L 228.06843 183.912141 
L 229.872798 189.223474 
L 231.60276 193.646955 
L 233.295517 197.382327 
L 234.951072 200.512853 
L 236.588024 203.146299 
L 238.224977 205.367704 
L 239.880531 207.243305 
L 241.554687 208.808577 
L 243.284648 210.124857 
L 245.107618 211.231998 
L 247.0608 212.154892 
L 249.2 212.91489 
L 251.599624 213.52656 
L 254.408485 214.00614 
L 257.868408 214.361146 
L 262.50024 214.597844 
L 269.829323 214.723563 
L 289.249533 214.75613 
L 378.593662 214.756364 
L 378.593662 214.756364 
" style="fill:none;stroke:#9467bd;stroke-dasharray:2.96,1.28;stroke-dashoffset:0;stroke-width:0.8;"/>
   </g>
   <g id="line2d_16">
    <path clip-path="url(#pa1200ca296)" d="M 43.781051 214.756364 
L 145.699952 214.645363 
L 150.629411 214.412441 
L 153.791706 214.050195 
L 156.247135 213.55135 
L 158.330529 212.904131 
L 160.190702 212.094498 
L 161.920664 211.098385 
L 163.576218 209.886346 
L 165.194569 208.421626 
L 166.775716 206.686789 
L 168.301059 204.681564 
L 169.751994 202.40237 
L 171.091319 199.880385 
L 172.337635 197.053447 
L 173.528146 193.784747 
L 174.681453 189.947461 
L 175.834761 185.317253 
L 177.043874 179.507921 
L 178.383198 171.913876 
L 180.038753 161.128223 
L 183.796303 136.156764 
L 184.912407 130.448657 
L 185.823892 126.859186 
L 188.688559 117.305149 
L 189.823265 114.29145 
L 190.678945 112.588406 
L 191.367209 111.665946 
L 191.925261 111.251023 
L 192.408906 111.151699 
L 192.855347 111.28444 
L 193.338993 111.677788 
L 193.95285 112.508951 
L 195.236369 114.623788 
L 196.687305 117.462869 
L 198.380062 121.291148 
L 200.426253 126.502944 
L 203.235115 134.323997 
L 209.652713 152.371051 
L 212.015134 158.239464 
L 214.024121 162.658544 
L 215.828489 166.113683 
L 217.502645 168.85543 
L 219.065191 171.002315 
L 220.553329 172.679648 
L 221.985663 173.965543 
L 223.380793 174.923132 
L 224.757321 175.601418 
L 226.152451 176.041436 
L 227.584785 176.2614 
L 229.128729 176.270923 
L 230.840088 176.054699 
L 232.886279 175.562755 
L 235.843955 174.597291 
L 240.382778 173.130353 
L 242.65219 172.645881 
L 244.475159 172.473577 
L 246.149316 172.541452 
L 247.767666 172.829865 
L 249.255805 173.312428 
L 250.781147 174.046347 
L 252.380896 175.069569 
L 254.092256 176.435025 
L 255.971031 178.225447 
L 258.128832 180.60108 
L 260.751677 183.836544 
L 264.806855 189.242827 
L 270.071146 196.186896 
L 273.084626 199.785474 
L 275.707471 202.579327 
L 278.144298 204.858086 
L 280.506718 206.767636 
L 282.850537 208.378108 
L 285.212957 209.733415 
L 287.649784 210.876705 
L 290.235425 211.842899 
L 293.025685 212.645778 
L 296.132175 213.304294 
L 299.703708 213.828719 
L 304.01931 214.229416 
L 309.59983 214.512066 
L 317.765992 214.682958 
L 333.726279 214.75119 
L 378.593662 214.756363 
L 378.593662 214.756363 
" style="fill:none;stroke:#000000;stroke-linecap:square;stroke-width:1.4;"/>
   </g>
   <g id="patch_3">
    <path d="M 43.78125 224.64 
L 43.78125 7.2 
" style="fill:none;stroke:#000000;stroke-linecap:square;stroke-linejoin:miter;stroke-width:0.8;"/>
   </g>
   <g id="patch_4">
    <path d="M 378.58125 224.64 
L 378.58125 7.2 
" style="fill:none;stroke:#000000;stroke-linecap:square;stroke-linejoin:miter;stroke-width:0.8;"/>
   </g>
   <g id="patch_5">
    <path d="M 43.78125 224.64 
L 378.58125 224.64 
" style="fill:none;stroke:#000000;stroke-linecap:square;stroke-linejoin:miter;stroke-width:0.8;"/>
   </g>
   <g id="patch_6">
    <path d="M 43.78125 7.2 
L 378.58125 7.2 
" style="fill:none;stroke:#000000;stroke-linecap:square;stroke-linejoin:miter;stroke-width:0.8;"/>
   </g>
   <g id="legend_1">
    <g id="line2d_17">
     <path d="M 238.851562 20.298438 
L 258.851562 20.298438 
" style="fill:none;stroke:#808080;stroke-dasharray:2.96,1.28;stroke-dashoffset:0;stroke-width:0.8;"/>
    </g>
    <g id="line2d_18"/>
    <g id="text_13">
     <!-- Split Normal PDFs -->
     <defs>
      <path d="M 53.515625 70.515625 
L 53.515625 60.890625 
Q 47.90625 63.578125 42.921875 64.890625 
Q 37.9375 66.21875 33.296875 66.21875 
Q 25.25 66.21875 20.875 63.09375 
Q 16.5 59.96875 16.5 54.203125 
Q 16.5 49.359375 19.40625 46.890625 
Q 22.3125 44.4375 30.421875 42.921875 
L 36.375 41.703125 
Q 47.40625 39.59375 52.65625 34.296875 
Q 57.90625 29 57.90625 20.125 
Q 57.90625 9.515625 50.796875 4.046875 
Q 43.703125 -1.421875 29.984375 -1.421875 
Q 24.8125 -1.421875 18.96875 -0.25 
Q 13.140625 0.921875 6.890625 3.21875 
L 6.890625 13.375 
Q 12.890625 10.015625 18.65625 8.296875 
Q 24.421875 6.59375 29.984375 6.59375 
Q 38.421875 6.59375 43.015625 9.90625 
Q 47.609375 13.234375 47.609375 19.390625 
Q 47.609375 24.75 44.3125 27.78125 
Q 41.015625 30.8125 33.5 32.328125 
L 27.484375 33.5 
Q 16.453125 35.6875 11.515625 40.375 
Q 6.59375 45.0625 6.59375 53.421875 
Q 6.59375 63.09375 13.40625 68.65625 
Q 20.21875 74.21875 32.171875 74.21875 
Q 37.3125 74.21875 42.625 73.28125 
Q 47.953125 72.359375 53.515625 70.515625 
z
" id="DejaVuSans-83"/>
      <path d="M 18.109375 8.203125 
L 18.109375 -20.796875 
L 9.078125 -20.796875 
L 9.078125 54.6875 
L 18.109375 54.6875 
L 18.109375 46.390625 
Q 20.953125 51.265625 25.265625 53.625 
Q 29.59375 56 35.59375 56 
Q 45.5625 56 51.78125 48.09375 
Q 58.015625 40.1875 58.015625 27.296875 
Q 58.015625 14.40625 51.78125 6.484375 
Q 45.5625 -1.421875 35.59375 -1.421875 
Q 29.59375 -1.421875 25.265625 0.953125 
Q 20.953125 3.328125 18.109375 8.203125 
z
M 48.6875 27.296875 
Q 48.6875 37.203125 44.609375 42.84375 
Q 40.53125 48.484375 33.40625 48.484375 
Q 26.265625 48.484375 22.1875 42.84375 
Q 18.109375 37.203125 18.109375 27.296875 
Q 18.109375 17.390625 22.1875 11.75 
Q 26.265625 6.109375 33.40625 6.109375 
Q 40.53125 6.109375 44.609375 11.75 
Q 48.6875 17.390625 48.6875 27.296875 
z
" id="DejaVuSans-112"/>
      <path d="M 9.421875 75.984375 
L 18.40625 75.984375 
L 18.40625 0 
L 9.421875 0 
z
" id="DejaVuSans-108"/>
      <path d="M 9.421875 54.6875 
L 18.40625 54.6875 
L 18.40625 0 
L 9.421875 0 
z
M 9.421875 75.984375 
L 18.40625 75.984375 
L 18.40625 64.59375 
L 9.421875 64.59375 
z
" id="DejaVuSans-105"/>
      <path d="M 18.3125 70.21875 
L 18.3125 54.6875 
L 36.8125 54.6875 
L 36.8125 47.703125 
L 18.3125 47.703125 
L 18.3125 18.015625 
Q 18.3125 11.328125 20.140625 9.421875 
Q 21.96875 7.515625 27.59375 7.515625 
L 36.8125 7.515625 
L 36.8125 0 
L 27.59375 0 
Q 17.1875 0 13.234375 3.875 
Q 9.28125 7.765625 9.28125 18.015625 
L 9.28125 47.703125 
L 2.6875 47.703125 
L 2.6875 54.6875 
L 9.28125 54.6875 
L 9.28125 70.21875 
z
" id="DejaVuSans-116"/>
      <path id="DejaVuSans-32"/>
      <path d="M 9.8125 72.90625 
L 23.09375 72.90625 
L 55.421875 11.921875 
L 55.421875 72.90625 
L 64.984375 72.90625 
L 64.984375 0 
L 51.703125 0 
L 19.390625 60.984375 
L 19.390625 0 
L 9.8125 0 
z
" id="DejaVuSans-78"/>
      <path d="M 30.609375 48.390625 
Q 23.390625 48.390625 19.1875 42.75 
Q 14.984375 37.109375 14.984375 27.296875 
Q 14.984375 17.484375 19.15625 11.84375 
Q 23.34375 6.203125 30.609375 6.203125 
Q 37.796875 6.203125 41.984375 11.859375 
Q 46.1875 17.53125 46.1875 27.296875 
Q 46.1875 37.015625 41.984375 42.703125 
Q 37.796875 48.390625 30.609375 48.390625 
z
M 30.609375 56 
Q 42.328125 56 49.015625 48.375 
Q 55.71875 40.765625 55.71875 27.296875 
Q 55.71875 13.875 49.015625 6.21875 
Q 42.328125 -1.421875 30.609375 -1.421875 
Q 18.84375 -1.421875 12.171875 6.21875 
Q 5.515625 13.875 5.515625 27.296875 
Q 5.515625 40.765625 12.171875 48.375 
Q 18.84375 56 30.609375 56 
z
" id="DejaVuSans-111"/>
      <path d="M 41.109375 46.296875 
Q 39.59375 47.171875 37.8125 47.578125 
Q 36.03125 48 33.890625 48 
Q 26.265625 48 22.1875 43.046875 
Q 18.109375 38.09375 18.109375 28.8125 
L 18.109375 0 
L 9.078125 0 
L 9.078125 54.6875 
L 18.109375 54.6875 
L 18.109375 46.1875 
Q 20.953125 51.171875 25.484375 53.578125 
Q 30.03125 56 36.53125 56 
Q 37.453125 56 38.578125 55.875 
Q 39.703125 55.765625 41.0625 55.515625 
z
" id="DejaVuSans-114"/>
      <path d="M 52 44.1875 
Q 55.375 50.25 60.0625 53.125 
Q 64.75 56 71.09375 56 
Q 79.640625 56 84.28125 50.015625 
Q 88.921875 44.046875 88.921875 33.015625 
L 88.921875 0 
L 79.890625 0 
L 79.890625 32.71875 
Q 79.890625 40.578125 77.09375 44.375 
Q 74.3125 48.1875 68.609375 48.1875 
Q 61.625 48.1875 57.5625 43.546875 
Q 53.515625 38.921875 53.515625 30.90625 
L 53.515625 0 
L 44.484375 0 
L 44.484375 32.71875 
Q 44.484375 40.625 41.703125 44.40625 
Q 38.921875 48.1875 33.109375 48.1875 
Q 26.21875 48.1875 22.15625 43.53125 
Q 18.109375 38.875 18.109375 30.90625 
L 18.109375 0 
L 9.078125 0 
L 9.078125 54.6875 
L 18.109375 54.6875 
L 18.109375 46.1875 
Q 21.1875 51.21875 25.484375 53.609375 
Q 29.78125 56 35.6875 56 
Q 41.65625 56 45.828125 52.96875 
Q 50 49.953125 52 44.1875 
z
" id="DejaVuSans-109"/>
      <path d="M 34.28125 27.484375 
Q 23.390625 27.484375 19.1875 25 
Q 14.984375 22.515625 14.984375 16.5 
Q 14.984375 11.71875 18.140625 8.90625 
Q 21.296875 6.109375 26.703125 6.109375 
Q 34.1875 6.109375 38.703125 11.40625 
Q 43.21875 16.703125 43.21875 25.484375 
L 43.21875 27.484375 
z
M 52.203125 31.203125 
L 52.203125 0 
L 43.21875 0 
L 43.21875 8.296875 
Q 40.140625 3.328125 35.546875 0.953125 
Q 30.953125 -1.421875 24.3125 -1.421875 
Q 15.921875 -1.421875 10.953125 3.296875 
Q 6 8.015625 6 15.921875 
Q 6 25.140625 12.171875 29.828125 
Q 18.359375 34.515625 30.609375 34.515625 
L 43.21875 34.515625 
L 43.21875 35.40625 
Q 43.21875 41.609375 39.140625 45 
Q 35.0625 48.390625 27.6875 48.390625 
Q 23 48.390625 18.546875 47.265625 
Q 14.109375 46.140625 10.015625 43.890625 
L 10.015625 52.203125 
Q 14.9375 54.109375 19.578125 55.046875 
Q 24.21875 56 28.609375 56 
Q 40.484375 56 46.34375 49.84375 
Q 52.203125 43.703125 52.203125 31.203125 
z
" id="DejaVuSans-97"/>
      <path d="M 19.671875 64.796875 
L 19.671875 37.40625 
L 32.078125 37.40625 
Q 38.96875 37.40625 42.71875 40.96875 
Q 46.484375 44.53125 46.484375 51.125 
Q 46.484375 57.671875 42.71875 61.234375 
Q 38.96875 64.796875 32.078125 64.796875 
z
M 9.8125 72.90625 
L 32.078125 72.90625 
Q 44.34375 72.90625 50.609375 67.359375 
Q 56.890625 61.8125 56.890625 51.125 
Q 56.890625 40.328125 50.609375 34.8125 
Q 44.34375 29.296875 32.078125 29.296875 
L 19.671875 29.296875 
L 19.671875 0 
L 9.8125 0 
z
" id="DejaVuSans-80"/>
      <path d="M 19.671875 64.796875 
L 19.671875 8.109375 
L 31.59375 8.109375 
Q 46.6875 8.109375 53.6875 14.9375 
Q 60.6875 21.78125 60.6875 36.53125 
Q 60.6875 51.171875 53.6875 57.984375 
Q 46.6875 64.796875 31.59375 64.796875 
z
M 9.8125 72.90625 
L 30.078125 72.90625 
Q 51.265625 72.90625 61.171875 64.09375 
Q 71.09375 55.28125 71.09375 36.53125 
Q 71.09375 17.671875 61.125 8.828125 
Q 51.171875 0 30.078125 0 
L 9.8125 0 
z
" id="DejaVuSans-68"/>
      <path d="M 9.8125 72.90625 
L 51.703125 72.90625 
L 51.703125 64.59375 
L 19.671875 64.59375 
L 19.671875 43.109375 
L 48.578125 43.109375 
L 48.578125 34.8125 
L 19.671875 34.8125 
L 19.671875 0 
L 9.8125 0 
z
" id="DejaVuSans-70"/>
      <path d="M 44.28125 53.078125 
L 44.28125 44.578125 
Q 40.484375 46.53125 36.375 47.5 
Q 32.28125 48.484375 27.875 48.484375 
Q 21.1875 48.484375 17.84375 46.4375 
Q 14.5 44.390625 14.5 40.28125 
Q 14.5 37.15625 16.890625 35.375 
Q 19.28125 33.59375 26.515625 31.984375 
L 29.59375 31.296875 
Q 39.15625 29.25 43.1875 25.515625 
Q 47.21875 21.78125 47.21875 15.09375 
Q 47.21875 7.46875 41.1875 3.015625 
Q 35.15625 -1.421875 24.609375 -1.421875 
Q 20.21875 -1.421875 15.453125 -0.5625 
Q 10.6875 0.296875 5.421875 2 
L 5.421875 11.28125 
Q 10.40625 8.6875 15.234375 7.390625 
Q 20.0625 6.109375 24.8125 6.109375 
Q 31.15625 6.109375 34.5625 8.28125 
Q 37.984375 10.453125 37.984375 14.40625 
Q 37.984375 18.0625 35.515625 20.015625 
Q 33.0625 21.96875 24.703125 23.78125 
L 21.578125 24.515625 
Q 13.234375 26.265625 9.515625 29.90625 
Q 5.8125 33.546875 5.8125 39.890625 
Q 5.8125 47.609375 11.28125 51.796875 
Q 16.75 56 26.8125 56 
Q 31.78125 56 36.171875 55.265625 
Q 40.578125 54.546875 44.28125 53.078125 
z
" id="DejaVuSans-115"/>
     </defs>
     <g transform="translate(266.851562 23.798438)scale(0.1 -0.1)">
      <use xlink:href="#DejaVuSans-83"/>
      <use x="63.476562" xlink:href="#DejaVuSans-112"/>
      <use x="126.953125" xlink:href="#DejaVuSans-108"/>
      <use x="154.736328" xlink:href="#DejaVuSans-105"/>
      <use x="182.519531" xlink:href="#DejaVuSans-116"/>
      <use x="221.728516" xlink:href="#DejaVuSans-32"/>
      <use x="253.515625" xlink:href="#DejaVuSans-78"/>
      <use x="328.320312" xlink:href="#DejaVuSans-111"/>
      <use x="389.501953" xlink:href="#DejaVuSans-114"/>
      <use x="430.599609" xlink:href="#DejaVuSans-109"/>
      <use x="528.011719" xlink:href="#DejaVuSans-97"/>
      <use x="589.291016" xlink:href="#DejaVuSans-108"/>
      <use x="617.074219" xlink:href="#DejaVuSans-32"/>
      <use x="648.861328" xlink:href="#DejaVuSans-80"/>
      <use x="709.164062" xlink:href="#DejaVuSans-68"/>
      <use x="786.166016" xlink:href="#DejaVuSans-70"/>
      <use x="843.685547" xlink:href="#DejaVuSans-115"/>
     </g>
    </g>
    <g id="line2d_19">
     <path d="M 238.851562 34.976562 
L 258.851562 34.976562 
" style="fill:none;stroke:#000000;stroke-linecap:square;stroke-width:1.4;"/>
    </g>
    <g id="line2d_20"/>
    <g id="text_14">
     <!-- Split Normal Mixture -->
     <defs>
      <path d="M 9.8125 72.90625 
L 24.515625 72.90625 
L 43.109375 23.296875 
L 61.8125 72.90625 
L 76.515625 72.90625 
L 76.515625 0 
L 66.890625 0 
L 66.890625 64.015625 
L 48.09375 14.015625 
L 38.1875 14.015625 
L 19.390625 64.015625 
L 19.390625 0 
L 9.8125 0 
z
" id="DejaVuSans-77"/>
      <path d="M 54.890625 54.6875 
L 35.109375 28.078125 
L 55.90625 0 
L 45.3125 0 
L 29.390625 21.484375 
L 13.484375 0 
L 2.875 0 
L 24.125 28.609375 
L 4.6875 54.6875 
L 15.28125 54.6875 
L 29.78125 35.203125 
L 44.28125 54.6875 
z
" id="DejaVuSans-120"/>
      <path d="M 8.5 21.578125 
L 8.5 54.6875 
L 17.484375 54.6875 
L 17.484375 21.921875 
Q 17.484375 14.15625 20.5 10.265625 
Q 23.53125 6.390625 29.59375 6.390625 
Q 36.859375 6.390625 41.078125 11.03125 
Q 45.3125 15.671875 45.3125 23.6875 
L 45.3125 54.6875 
L 54.296875 54.6875 
L 54.296875 0 
L 45.3125 0 
L 45.3125 8.40625 
Q 42.046875 3.421875 37.71875 1 
Q 33.40625 -1.421875 27.6875 -1.421875 
Q 18.265625 -1.421875 13.375 4.4375 
Q 8.5 10.296875 8.5 21.578125 
z
M 31.109375 56 
z
" id="DejaVuSans-117"/>
      <path d="M 56.203125 29.59375 
L 56.203125 25.203125 
L 14.890625 25.203125 
Q 15.484375 15.921875 20.484375 11.0625 
Q 25.484375 6.203125 34.421875 6.203125 
Q 39.59375 6.203125 44.453125 7.46875 
Q 49.3125 8.734375 54.109375 11.28125 
L 54.109375 2.78125 
Q 49.265625 0.734375 44.1875 -0.34375 
Q 39.109375 -1.421875 33.890625 -1.421875 
Q 20.796875 -1.421875 13.15625 6.1875 
Q 5.515625 13.8125 5.515625 26.8125 
Q 5.515625 40.234375 12.765625 48.109375 
Q 20.015625 56 32.328125 56 
Q 43.359375 56 49.78125 48.890625 
Q 56.203125 41.796875 56.203125 29.59375 
z
M 47.21875 32.234375 
Q 47.125 39.59375 43.09375 43.984375 
Q 39.0625 48.390625 32.421875 48.390625 
Q 24.90625 48.390625 20.390625 44.140625 
Q 15.875 39.890625 15.1875 32.171875 
z
" id="DejaVuSans-101"/>
     </defs>
     <g transform="translate(266.851562 38.476562)scale(0.1 -0.1)">
      <use xlink:href="#DejaVuSans-83"/>
      <use x="63.476562" xlink:href="#DejaVuSans-112"/>
      <use x="126.953125" xlink:href="#DejaVuSans-108"/>
      <use x="154.736328" xlink:href="#DejaVuSans-105"/>
      <use x="182.519531" xlink:href="#DejaVuSans-116"/>
      <use x="221.728516" xlink:href="#DejaVuSans-32"/>
      <use x="253.515625" xlink:href="#DejaVuSans-78"/>
      <use x="328.320312" xlink:href="#DejaVuSans-111"/>
      <use x="389.501953" xlink:href="#DejaVuSans-114"/>
      <use x="430.599609" xlink:href="#DejaVuSans-109"/>
      <use x="528.011719" xlink:href="#DejaVuSans-97"/>
      <use x="589.291016" xlink:href="#DejaVuSans-108"/>
      <use x="617.074219" xlink:href="#DejaVuSans-32"/>
      <use x="648.861328" xlink:href="#DejaVuSans-77"/>
      <use x="735.140625" xlink:href="#DejaVuSans-105"/>
      <use x="762.923828" xlink:href="#DejaVuSans-120"/>
      <use x="822.103516" xlink:href="#DejaVuSans-116"/>
      <use x="861.3125" xlink:href="#DejaVuSans-117"/>
      <use x="924.691406" xlink:href="#DejaVuSans-114"/>
      <use x="965.773438" xlink:href="#DejaVuSans-101"/>
     </g>
    </g>
   </g>
  </g>
 </g>
 <defs>
  <clipPath id="pa1200ca296">
   <rect height="217.44" width="334.8" x="43.78125" y="7.2"/>
  </clipPath>
 </defs>
</svg>
